<svg width="60" height="67" viewBox="0 0 60 67" fill="none" xmlns="http://www.w3.org/2000/svg">
<path d="M7.72113 24C4.99046 24 3.02779 23.4027 1.83313 22.208C0.659793 21.0133 0.0731258 19.2853 0.0731258 17.024V1.6H4.58513V17.024C4.58513 18.1973 4.84113 19.072 5.35313 19.648C5.86513 20.2027 6.65446 20.48 7.72113 20.48H14.8891V24H7.72113ZM23.2684 6.944C22.607 6.944 22.0417 6.70933 21.5724 6.24C21.103 5.77067 20.8684 5.20533 20.8684 4.544C20.8684 3.904 21.103 3.34933 21.5724 2.88C22.0417 2.38933 22.607 2.144 23.2684 2.144C23.9084 2.144 24.463 2.38933 24.9324 2.88C25.423 3.34933 25.6684 3.904 25.6684 4.544C25.6684 5.20533 25.423 5.77067 24.9324 6.24C24.463 6.70933 23.9084 6.944 23.2684 6.944ZM24.1004 24.384C23.0124 23.8293 22.255 23.2 21.8284 22.496C21.4017 21.7707 21.1884 20.768 21.1884 19.488V8.96H25.3484V19.36C25.3484 19.936 25.455 20.4053 25.6684 20.768C25.903 21.1307 26.3084 21.5253 26.8844 21.952L24.1004 24.384ZM40.3011 3.52C39.4051 3.52 38.7118 3.81867 38.2211 4.416C37.7518 4.992 37.5171 5.824 37.5171 6.912V8.96H41.8691V12.16H37.5171V24H33.3571V6.912C33.3571 4.77867 33.9545 3.14667 35.1491 2.016C36.3651 0.885333 38.0825 0.32 40.3011 0.32H41.8691V3.52H40.3011ZM53.4496 21.248C54.239 21.248 54.879 21.152 55.3696 20.96C55.8603 20.7467 56.3936 20.384 56.9696 19.872L59.4336 22.112C58.1963 23.6267 56.2016 24.384 53.4496 24.384C50.9963 24.384 49.2256 23.9253 48.1376 23.008C47.0496 22.0693 46.5056 20.5547 46.5056 18.464V13.888C46.5056 12.2453 47.0923 10.9547 48.2656 10.016C49.4603 9.056 51.0816 8.576 53.1296 8.576C55.2416 8.576 56.895 9.088 58.0896 10.112C59.2843 11.1147 59.8816 12.5867 59.8816 14.528C59.8816 15.4667 59.7963 16.192 59.6256 16.704C59.4763 17.216 59.167 17.6 58.6976 17.856C58.2283 18.0907 57.5456 18.208 56.6496 18.208H50.6336V18.496C50.6336 20.3307 51.5723 21.248 53.4496 21.248ZM53.1296 11.712C52.3403 11.712 51.7216 11.9467 51.2736 12.416C50.847 12.864 50.6336 13.4613 50.6336 14.208V15.36H54.2816C54.8363 15.36 55.2203 15.2747 55.4336 15.104C55.647 14.9333 55.7536 14.6347 55.7536 14.208C55.7536 13.3973 55.5296 12.7787 55.0816 12.352C54.6336 11.9253 53.983 11.712 53.1296 11.712ZM16.5536 66.384C14.847 66.384 13.2896 66.16 11.8816 65.712C10.495 65.264 9.23629 64.3467 8.10562 62.96L10.4416 60.56C11.2523 61.648 12.159 62.3627 13.1616 62.704C14.1643 63.024 15.295 63.184 16.5536 63.184C18.0683 63.184 19.263 62.8213 20.1376 62.096C21.0123 61.3707 21.4496 60.368 21.4496 59.088C21.4496 57.616 20.991 56.5493 20.0736 55.888C19.1776 55.2267 17.8336 54.896 16.0416 54.896C14.719 54.896 13.2256 55.0987 11.5616 55.504L9.41762 53.008L10.3136 43.6H24.2656V46.8H13.6736L13.2576 51.824C14.1536 51.6533 15.0816 51.568 16.0416 51.568C19.135 51.568 21.503 52.2187 23.1456 53.52C24.7883 54.8 25.6096 56.656 25.6096 59.088C25.6096 61.3493 24.799 63.1307 23.1776 64.432C21.5776 65.7333 19.3696 66.384 16.5536 66.384ZM50.4244 58H43.1284V65.36H39.7684V58H32.5044V54.864H39.7684V47.504H43.1284V54.864H50.4244V58Z" fill="white"/>
</svg>
